#!OML:ASF F:\VICON\USERDATA\Patient Classification 1\PLAYGROUND\JustinFriday\JustinFriday.ASF
:FULLY-SPECIFIED
:DEGREES
1481
root 14.7314 10.1844 6.84435 -390.547 -185.994 6.91455
lowerback 33.8679 -0.614782 2.63555
upperback 7.31273 2.96664 3.49808
thorax -9.28171 2.36408 1.01443
lowerneck 5.27367 -2.24661 -7.96689
upperneck 3.6619 -3.2986 7.72018
head 0.534303 -1.66395 3.98682
rclavicle -4.43228e-015 -1.39149e-014
rhumerus 68.7123 -6.69039 -71.9615
rradius 76.9499
rwrist 203.676
rhand -19.2707 21.1281
rfingers 7.12502
rthumb 7.04387 -8.73473
lclavicle -4.43228e-015 -1.39149e-014
lhumerus 68.0526 7.91978 61.6559
lradius 59.5133
lwrist -21.6655
lhand -21.6857 -5.08473
lfingers 7.12502
lthumb 4.7123 24.8429
rfemur -53.1786 -17.2413 32.0307
rtibia 124.582
rfoot -22.2152 -8.82692
rtoes 19.6212
lfemur -56.5505 6.17299 -4.81108
ltibia 51.7557
lfoot -9.04689 -6.82229
ltoes -31.8258
1482
root 14.7268 10.0549 6.64883 -391.158 -186.219 6.6635
lowerback 33.4865 -0.55001 2.58758
upperback 7.36447 2.97071 3.40388
thorax -9.074 2.36065 0.951762
lowerneck 5.34749 -2.02562 -7.67964
upperneck 3.38126 -2.98695 7.90679
head 0.400567 -1.50657 3.99734
rclavicle 6.35729e-015 3.47873e-014
rhumerus 68.8829 -6.81208 -71.8438
rradius 76.4782
rwrist 203.48
rhand -19.9788 20.8553
rfingers 7.12502
rthumb 6.36032 -9.02924
lclavicle 6.35729e-015 3.47873e-014
lhumerus 68.2199 7.94771 61.7148
lradius 59.3124
lwrist -21.4235
lhand -21.1583 -4.99823
lfingers 7.12502
lthumb 5.22152 24.9174
rfemur -53.6318 -18.0801 31.5695
rtibia 126.669
rfoot -20.4585 -8.73503
rtoes 19.4782
lfemur -55.4028 5.61918 -4.33613
ltibia 48.5961
lfoot -8.16846 -6.51389
ltoes -29.6331
1483
root 14.7171 9.94355 6.46461 -392.436 -185.787 5.76683
lowerback 33.7012 -0.456269 1.91536
upperback 7.6986 2.89797 2.98847
thorax -8.78797 2.38259 0.897617
lowerneck 4.92715 -2.45842 -6.77905
upperneck 3.19558 -3.50402 7.31388
head 0.429607 -1.75608 3.60727
rclavicle -2.82111e-014 3.08116e-015
rhumerus 69.3741 -7.376 -71.9807
rradius 76.1578
rwrist 203.389
rhand -20.8975 20.9056
rfingers 7.12502
rthumb 5.47327 -9.00371
lclavicle -2.82111e-014 3.08116e-015
lhumerus 69.3147 7.71779 62.4633
lradius 58.7982
lwrist -21.4436
lhand -20.757 -5.10324
lfingers 7.12502
lthumb 5.60893 24.8025
rfemur -53.4563 -20.2038 29.3347
rtibia 128.755
rfoot -18.4331 -7.59795
rtoes 20.4925
lfemur -53.5609 4.62799 -4.91231
ltibia 45.6688
lfoot -7.92884 -5.91631
ltoes -31.5089
1484
root 14.717 9.80213 6.25319 -393.281 -185.646 5.00756
lowerback 33.5559 -0.217752 0.961918
upperback 7.53517 2.7889 2.96663
thorax -8.94459 2.30796 1.42477
lowerneck 5.46759 -2.21121 -7.29076
upperneck 3.64021 -3.2112 7.66374
head 0.471379 -1.60774 3.83577
rclavicle 2.45064e-015 -1.0635e-014
rhumerus 69.2729 -7.0325 -71.8787
rradius 75.6613
rwrist 203.162
rhand -21.3313 20.9211
rfingers 7.12502
rthumb 5.05447 -8.99858
lclavicle 2.45064e-015 -1.0635e-014
lhumerus 69.2831 7.70577 63.1232
lradius 58.1049
lwrist -21.3611
lhand -20.651 -5.16207
lfingers 7.12502
lthumb 5.71131 24.741
rfemur -54.1663 -21.8464 27.8823
rtibia 131.088
rfoot -15.9309 -7.32822
rtoes 21.2875
lfemur -52.3091 4.26489 -5.2268
ltibia 43.263
lfoot -8.15704 -5.46973
ltoes -34.3916
1485
root 14.7103 9.6676 6.03668 -394.174 -186.066 4.89768
lowerback 33.6545 -0.085658 0.789571
upperback 7.22459 2.84362 3.16132
thorax -9.34604 2.29475 1.69455
lowerneck 6.01406 -1.72465 -8.29208
upperneck 4.8013 -2.61829 8.53385
head 0.733774 -1.2945 4.34802
rclavicle -9.5106e-015 -5.36719e-015
rhumerus 68.9253 -6.5938 -71.6923
rradius 74.9064
rwrist 202.82
rhand -21.2865 20.6143
rfingers 7.12502
rthumb 5.09774 -9.30434
lclavicle -9.5106e-015 -5.36719e-015
lhumerus 68.7313 7.61996 63.5142
lradius 57.7053
lwrist -21.0087
lhand -20.5139 -5.05546
lfingers 7.12502
lthumb 5.84372 24.844
rfemur -54.8973 -23.0964 27.5148
rtibia 133.234
rfoot -12.9137 -7.74349
rtoes 22.2003
lfemur -50.946 3.93618 -4.5269
ltibia 41.3186
lfoot -8.04253 -4.96196
ltoes -33.9775
1486
root 14.7012 9.54466 5.8237 -395.07 -186.589 4.96946
lowerback 33.7089 -0.0950798 0.867876
upperback 7 2.82597 3.34161
thorax -9.62422 2.25691 1.84614
lowerneck 7.33661 -1.43325 -8.41414
upperneck 4.24968 -2.28362 8.61672
head 0.288873 -1.1478 4.41868
rclavicle 2.35311e-014 2.90226e-014
rhumerus 68.834 -6.01563 -71.86
rradius 74.1433
rwrist 202.555
rhand -21.5895 20.2707
rfingers 7.12502
rthumb 4.80517 -9.65485
lclavicle 2.35311e-014 2.90226e-014
lhumerus 68.4397 7.64967 64.0964
lradius 57.2062
lwrist -20.9135
lhand -20.1884 -5.09236
lfingers 7.12502
lthumb 6.15797 24.7981
rfemur -55.6757 -24.3429 27.302
rtibia 135.285
rfoot -9.61168 -8.12701
rtoes 24.002
lfemur -49.6939 3.71068 -3.71282
ltibia 39.9952
lfoot -8.0915 -4.56516
ltoes -33.4777
1487
root 14.6945 9.42817 5.61829 -396.127 -186.864 4.77625
lowerback 33.7932 -0.0658755 0.978121
upperback 7.2985 2.94465 3.10665
thorax -9.30963 2.34778 1.49555
lowerneck 7.17196 -1.98641 -7.4124
upperneck 3.22203 -2.95132 8.32694
head 0.0255525 -1.49155 4.12659
rclavicle 8.70925e-015 6.16232e-015
rhumerus 69.5827 -6.47665 -72.3537
rradius 73.3298
rwrist 202.574
rhand -21.7252 20.0505
rfingers 7.12502
rthumb 4.67412 -9.87789
lclavicle 8.70925e-015 6.16232e-015
lhumerus 69.6751 7.37974 64.7073
lradius 56.4119
lwrist -21.0118
lhand -19.8672 -5.33348
lfingers 7.12502
lthumb 6.46799 24.5478
rfemur -56.3448 -25.8126 26.59
rtibia 137.102
rfoot -5.92568 -8.65853
rtoes 25.1261
lfemur -48.4526 3.4629 -3.38542
ltibia 39.2444
lfoot -7.97274 -4.49632
ltoes -31.7175
1488
root 14.6862 9.30446 5.40876 -397.319 -187.016 4.55826
lowerback 34.1088 -0.152843 0.783507
upperback 7.28329 2.78372 3.08342
thorax -9.44724 2.2801 1.62592
lowerneck 6.27497 -1.78948 -7.52549
upperneck 4.7636 -2.6575 8.18609
head 0.660311 -1.30117 4.07208
rclavicle -4.29872e-015 2.88238e-015
rhumerus 69.9448 -6.07953 -72.3639
rradius 72.3136
rwrist 202.375
rhand -21.5196 19.7602
rfingers 7.12502
rthumb 4.87264 -10.1638
lclavicle -4.29872e-015 2.88238e-015
lhumerus 69.7749 7.5494 65.0538
lradius 55.7988
lwrist -21.1082
lhand -19.7372 -5.33792
lfingers 7.12502
lthumb 6.59356 24.5394
rfemur -56.9914 -27.3827 25.9054
rtibia 138.702
rfoot -2.15796 -9.5523
rtoes 25.8485
lfemur -47.3182 3.25221 -3.29187
ltibia 39.09
lfoot -7.60408 -4.65895
ltoes -36.0691
1489
root 14.6815 9.1754 5.18993 -398.302 -187.287 4.31272
lowerback 34.1595 -0.0715167 0.582206
upperback 7.2832 2.81254 3.10107
thorax -9.47592 2.29453 1.73972
lowerneck 5.97805 -1.61427 -7.59543
upperneck 5.31686 -2.41036 8.26948
head 0.874188 -1.16031 4.10998
rclavicle -1.38528e-014 -1.33186e-014
rhumerus 70.3051 -5.90156 -72.5552
rradius 71.385
rwrist 202.136
rhand -21.5031 19.3924
rfingers 7.12502
rthumb 4.88858 -10.5312
lclavicle -1.38528e-014 -1.33186e-014
lhumerus 69.9531 7.50077 65.5289
lradius 55.4548
lwrist -21.3049
lhand -19.7381 -5.17171
lfingers 7.12502
lthumb 6.59267 24.7057
rfemur -58.0961 -28.8303 25.5678
rtibia 140.382
rfoot 1.06997 -10.7478
rtoes 28.2305
lfemur -46.563 3.53509 -3.3432
ltibia 39.5065
lfoot -7.49752 -4.99895
ltoes -37.9974
1490
root 14.6819 9.04551 4.96407 -399.106 -187.498 3.99391
lowerback 33.9968 0.118638 0.151118
upperback 7.02903 2.82014 3.19469
thorax -9.71815 2.26405 2.06879
lowerneck 6.89456 -1.31059 -7.47693
upperneck 5.10099 -2.01469 8.1823
head 0.603876 -0.967858 4.06072
rclavicle 2.00773e-014 -1.59028e-015
rhumerus 70.2658 -5.43932 -73.0282
rradius 70.6234
rwrist 202.029
rhand -21.7211 19.1124
rfingers 7.12502
rthumb 4.67804 -10.8159
lclavicle 2.00773e-014 -1.59028e-015
lhumerus 69.6252 7.32276 66.1342
lradius 55.1032
lwrist -21.7389
lhand -19.8275 -4.99976
lfingers 7.12502
lthumb 6.50636 24.8803
rfemur -59.4086 -30.3532 25.2766
rtibia 142.125
rfoot 3.37459 -12.1814
rtoes 31.7216
lfemur -46.1407 4.14014 -3.66174
ltibia 40.4799
lfoot -7.50297 -5.37586
ltoes -32.791
